 http://img705.imageshack.us/img705/5955/9567front.jpg

Country.......: India
Genre.........: Comedy, Romance
Date release..: 08.01.2010 [World]
Director......: Jugal Hansraj
Writers.......: Uday Chopra
Duration......: 140 min.
More..........: http://www.imdb.com/title/tt1351224
Trailer.......: http://www.imdb.com/video/imdblink/vi2474181657
Trailer.......:

Pilot :
A romantic comedy in which a geek and the most sought-after college beauty are paired together by a twist of fate. And under all odds, an impossible love story begins. 

Cats :
Uday Chopra   	 ...  	Abhay Froggy Sharma
Priyanka Chopra 	... 	Alisha Merchant
Dino Morea 	... 	Sidhu | Varun Sanghvi
Rahul Vohra 	... 	C.P.
Jugal Hansraj 	... 	Showroom Manager
Creighton Mark Johnson 	... 	Neighbour
Saidah Jules 		
Anupam Kher 	... 	Abhay s father
Arjun Sablok 	... 	Jaspreet
Advika Yadav 	... 	Tanya Merchant 

Data Technical :
!!! SAMPLE !!!
Audio.....: Hindi
Subtitles.: English .srt, Spanish .srt, Polish .txt
[ CD1 ]
Format                           : AVI
Format/Info                      : Audio Video Interleave
File size                        : 701 MiB
Duration                         : 1h 6mn
Overall bit rate                 : 1 482 Kbps
Writing application              : VirtualDubMod 1.5.10.2 (build 2540/release)
Writing library                  : VirtualDubMod build 2540/release
Video
ID                               : 0
Format                           : MPEG-4 Visual
Format profile                   : Advanced Simple@L5
Format settings, BVOP            : Yes
Format settings, QPel            : No
Format settings, GMC             : No warppoints
Format settings, Matrix          : Default (MPEG)
Codec ID                         : XVID
Codec ID/Hint                    : XviD
Duration                         : 1h 6mn
Bit rate                         : 1 025 Kbps
Width                            : 640 pixels
Height                           : 272 pixels
Display aspect ratio             : 2.35:1
Frame rate                       : 23.976 fps
Color space                      : YUV
Chroma subsampling               : 4:2:0
Bit depth                        : 8 bits
Scan type                        : Progressive
Bits/(Pixel*Frame)               : 0.246
Stream size                      : 485 MiB (69%)
Writing library                  : XviD 1.2.1 (UTC 2008-12-04)
Audio
ID                               : 1
Format                           : AC-3
Format/Info                      : Audio Coding 3
Mode extension                   : CM (complete main)
Codec ID                         : 2000
Duration                         : 1h 6mn
Bit rate mode                    : Constant
Bit rate                         : 448 Kbps
Channel(s)                       : 6 channels
Channel positions                : Front: L C R, Side: L R, LFE
Sampling rate                    : 48.0 KHz
Bit depth                        : 16 bits
Stream size                      : 212 MiB (30%)
Alignment                        : Split accross interleaves
Interleave, duration             : 42 ms (1.00 video frame)
Interleave, preload duration     : 500 ms
[ CD2 ]
Format                           : AVI
Format/Info                      : Audio Video Interleave
File size                        : 701 MiB
Duration                         : 1h 14mn
Overall bit rate                 : 1 310 Kbps
Writing application              : VirtualDubMod 1.5.10.2 (build 2540/release)
Writing library                  : VirtualDubMod build 2540/release
Video
ID                               : 0
Format                           : MPEG-4 Visual
Format profile                   : Advanced Simple@L5
Format settings, BVOP            : Yes
Format settings, QPel            : No
Format settings, GMC             : No warppoints
Format settings, Matrix          : Default (MPEG)
Codec ID                         : XVID
Codec ID/Hint                    : XviD
Duration                         : 1h 14mn
Bit rate                         : 854 Kbps
Width                            : 640 pixels
Height                           : 272 pixels
Display aspect ratio             : 2.35:1
Frame rate                       : 23.976 fps
Color space                      : YUV
Chroma subsampling               : 4:2:0
Bit depth                        : 8 bits
Scan type                        : Progressive
Bits/(Pixel*Frame)               : 0.205
Stream size                      : 457 MiB (65%)
Writing library                  : XviD 1.2.1 (UTC 2008-12-04)
Audio
ID                               : 1
Format                           : AC-3
Format/Info                      : Audio Coding 3
Mode extension                   : CM (complete main)
Codec ID                         : 2000
Duration                         : 1h 14mn
Bit rate mode                    : Constant
Bit rate                         : 448 Kbps
Channel(s)                       : 6 channels
Channel positions                : Front: L C R, Side: L R, LFE
Sampling rate                    : 48.0 KHz
Bit depth                        : 16 bits
Video delay                      : 12ms
Stream size                      : 239 MiB (34%)
Alignment                        : Split accross interleaves
Interleave, duration             : 42 ms (1.00 video frame)
Interleave, preload duration     : 500 ms

Screen : 
http://img641.imageshack.us/img641/4731/pyaarimpossible2010s1.jpg 
http://img36.imageshack.us/img36/9131/pyaarimpossible2010s2.jpg 
http://img820.imageshack.us/img820/6513/pyaarimpossible2010s3.jpg 
http://img155.imageshack.us/img155/6628/pyaarimpossible2010s4.jpg 
http://img688.imageshack.us/img688/1354/pyaarimpossible2010s5.jpg